<?xml version="1.0" encoding="utf-8"?>
<!-- Generator: Adobe Illustrator 22.1.0, SVG Export Plug-In . SVG Version: 6.00 Build 0)  -->
<svg version="1.1" id="Warstwa_1" xmlns="http://www.w3.org/2000/svg" xmlns:xlink="http://www.w3.org/1999/xlink" x="0px" y="0px"
	 viewBox="0 0 595.3 841.9" style="enable-background:new 0 0 595.3 841.9;" xml:space="preserve">
<style type="text/css">
	.st0{fill:#271910;}
	.st1{fill:#F57E21;}
	.st2{fill:#F57F22;}
	.st3{fill:#FFFFFF;}
</style>
<path class="st0" d="M161.3,432.3c-10.2,0-18.4-8.3-18.4-18.4V223.9c0-10.2,8.3-18.4,18.4-18.4H271c4.9,0,9.5,1.9,13,5.4l37.7,37.7
	c3.5,3.5,5.4,8.1,5.4,13v152.2c0,10.2-8.3,18.4-18.4,18.4H161.3z"/>
<path class="st1" d="M271,209.7c3.8,0,7.3,1.5,10,4.2l37.7,37.7c2.7,2.7,4.2,6.2,4.2,10v152.2c0,7.8-6.4,14.2-14.2,14.2H161.3
	c-7.8,0-14.2-6.4-14.2-14.2V223.9c0-7.8,6.4-14.2,14.2-14.2H271 M271,201.2H161.3c-12.5,0-22.7,10.2-22.7,22.7v189.9
	c0,12.5,10.2,22.7,22.7,22.7h147.4c12.5,0,22.7-10.2,22.7-22.7V261.7c0-6-2.4-11.8-6.6-16L287,207.9
	C282.7,203.6,277,201.2,271,201.2z"/>
<path class="st2" d="M272.4,269.5H261c-0.7,0-0.9,0.3-0.9,0.9h0.1v57.3c0,0.6,0.2,0.9,0.9,0.9h11.3c0.7,0,0.9-0.3,0.9-0.9v-57.4
	C273.3,269.7,273,269.5,272.4,269.5z"/>
<path class="st2" d="M266.6,261.2c4.4,0,7.5-2.6,7.5-7.4c0-4.4-3-7.4-7.4-7.4c-4.1,0-7.4,2.8-7.4,7.4
	C259.3,258.7,262.4,261.3,266.6,261.2z"/>
<path class="st2" d="M191.5,328.6h10.7c0.7,0,0.9-0.1,1.1-0.7L209,306h23.3l6,21.9c0.1,0.5,0.5,0.7,1.1,0.7h12.1
	c0.6,0,0.7-0.3,0.6-0.9l-23.1-78.4c-0.1-0.6-0.3-0.7-0.9-0.7h-15.3c-0.4,0-0.6,0.2-0.6,0.7c-0.1,3.6-0.4,4.8-0.7,6l-20.6,72.2
	C190.6,328.4,190.7,328.6,191.5,328.6z M220.3,260.1h0.1c1.8,8.5,6.6,26.1,8.7,34.2h-17.2C215,283,218.8,268.6,220.3,260.1z"/>
<path class="st3" d="M252.1,367.1h-5.1c-0.3,0-0.4,0.2-0.4,0.5h0v35c0,0.4,0.1,0.6,0.4,0.6h5.1c0.3,0,0.4-0.2,0.4-0.5v-35.1
	C252.5,367.2,252.3,367.1,252.1,367.1z"/>
<path class="st3" d="M215.6,403.2h4.8c0.3,0,0.4-0.1,0.5-0.3l2.6-9.8H234l2.7,9.9c0.1,0.2,0.2,0.3,0.5,0.3h5.4
	c0.3,0,0.3-0.2,0.3-0.4l-10.4-35.3c-0.1-0.3-0.2-0.3-0.4-0.3h-6.9c-0.2,0-0.3,0.1-0.3,0.3c-0.1,1.6-0.2,2.1-0.3,2.7l-9.3,32.6
	C215.2,403.1,215.3,403.2,215.6,403.2z M228.6,372.3L228.6,372.3c0.9,3.8,3.1,11.8,4,15.4h-7.8C226.2,382.6,227.9,376.2,228.6,372.3
	z"/>
</svg>
